<?xml version="1.0" encoding="UTF-8"?>
<!DOCTYPE svg PUBLIC "-//W3C//DTD SVG 1.1//EN" "http://www.w3.org/Graphics/SVG/1.1/DTD/svg11.dtd">
<!-- Creator: CorelDRAW 2021 (64 Bit) -->
<svg xmlns="http://www.w3.org/2000/svg" xml:space="preserve" width="100%" height="100%" version="1.1" style="shape-rendering:geometricPrecision; text-rendering:geometricPrecision; image-rendering:optimizeQuality; fill-rule:evenodd; clip-rule:evenodd"
viewBox="0 0 2320.54 426.88"
 xmlns:xlink="http://www.w3.org/1999/xlink"
 xmlns:xodm="http://www.corel.com/coreldraw/odm/2003">
 <defs>
  <style type="text/css">
   <![CDATA[
    .str0 {stroke:#007FC2;stroke-width:7.62;stroke-miterlimit:10}
    .fil2 {fill:#ED3237}
    .fil0 {fill:#007FC2}
    .fil1 {fill:#3E4095}
    .fil3 {fill:#4B4B4D;fill-rule:nonzero}
    .fil4 {fill:#007FC2;fill-rule:nonzero}
   ]]>
  </style>
 </defs>
 <g id="Camada_x0020_1">
  <metadata id="CorelCorpID_0Corel-Layer"/>
  <g id="_2921902567712">
   <path class="fil0" d="M386.83 405.03l0 -16.98 41.57 0 0 45.53c-16.63,-5.5 -31.09,-14.16 -41.57,-28.55z"/>
   <path class="fil1" d="M747.07 373.29c-45.93,31.58 -199.84,-36.14 -270.16,50.2 101.7,-71.54 205.99,4.12 270.16,-50.2z"/>
   <path class="fil1" d="M736.42 401.8c-77.18,27.36 -181.39,-55 -256.18,17.78 104.69,-55.31 190.57,25.85 256.18,-17.78z"/>
   <polygon class="fil2" points="-5.8,20.71 60.44,20.71 60.44,86.95 -5.8,86.95 "/>
   <polygon class="fil2" points="82.52,97.99 148.77,97.99 148.77,164.24 82.52,164.24 "/>
   <polygon class="fil2" points="82.52,205.11 148.77,205.11 148.77,271.35 82.52,271.35 "/>
   <polygon class="fil2" points="180.06,98.08 246.3,98.08 246.3,164.32 180.06,164.32 "/>
   <polygon class="fil0" points="180.06,205.19 246.3,205.19 246.3,271.44 180.06,271.44 "/>
   <polygon class="fil0" points="187.27,298.94 248.74,298.94 248.74,360.42 187.27,360.42 "/>
   <polygon class="fil0" points="187.22,7.11 248.69,7.11 248.69,68.58 187.22,68.58 "/>
   <polygon class="fil0" points="280.44,98.07 346.69,98.07 346.69,164.31 280.44,164.31 "/>
   <polygon class="fil2" points="280.44,205.18 346.69,205.18 346.69,271.43 280.44,271.43 "/>
   <polygon class="fil0" points="286.08,298.53 347.55,298.53 347.55,360 286.08,360 "/>
   <polygon class="fil0" points="286.03,6.69 347.5,6.69 347.5,68.17 286.03,68.17 "/>
   <polygon class="fil0" points="383.05,97.98 427.85,97.98 427.85,164.23 383.05,164.23 "/>
   <polygon class="fil0" points="383.05,205.1 427.85,205.1 427.85,271.34 383.05,271.34 "/>
   <polygon class="fil0" points="386.66,298.46 428.23,298.46 428.23,359.93 386.66,359.93 "/>
   <path class="fil0 str0" d="M428.18 51.1l0 16.99 -41.57 0 0 -45.53c16.63,5.5 31.08,14.16 41.57,28.54z"/>
   <path class="fil0" d="M761.53 7.21c-60.11,60.52 -270.5,-26.17 -314.66,71.16l0 352.11c89.68,-115.6 241.8,-34.71 313.12,-86.04l1.54 -337.23z"/>
   <path class="fil3" d="M813.38 107.59l0 -99.64 31.61 0c5.99,0 10.87,1.13 14.64,3.38 3.77,2.26 6.58,5.52 8.43,9.78 1.84,4.27 2.77,9.43 2.77,15.5 0,7.14 -1.21,12.71 -3.63,16.73 -2.42,4.02 -5.72,6.87 -9.91,8.55 -4.18,1.68 -8.98,2.52 -14.39,2.52l-9.22 0 0 43.18 -20.3 0zm20.3 -57.45l7.13 0c2.95,0 5.23,-0.47 6.83,-1.41 1.6,-0.94 2.68,-2.44 3.26,-4.49 0.57,-2.05 0.86,-4.68 0.86,-7.87 0,-3.04 -0.23,-5.58 -0.68,-7.63 -0.45,-2.05 -1.45,-3.65 -3.01,-4.8 -1.56,-1.15 -4.02,-1.72 -7.38,-1.72l-7.01 0 0 27.92zm75.4 58.8c-7.3,0 -13.08,-1.31 -17.34,-3.94 -4.27,-2.62 -7.32,-6.37 -9.17,-11.25 -1.84,-4.88 -2.76,-10.72 -2.76,-17.53l0 -37.15c0,-6.8 0.92,-12.63 2.76,-17.46 1.85,-4.84 4.9,-8.53 9.17,-11.08 4.26,-2.54 10.04,-3.81 17.34,-3.81 7.38,0 13.22,1.29 17.53,3.88 4.31,2.58 7.38,6.27 9.23,11.07 1.84,4.79 2.76,10.6 2.76,17.4l0 37.15c0,6.81 -0.92,12.65 -2.76,17.53 -1.85,4.88 -4.92,8.63 -9.23,11.25 -4.31,2.63 -10.15,3.94 -17.53,3.94zm0 -14.64c2.63,0 4.55,-0.59 5.78,-1.78 1.23,-1.19 2.05,-2.79 2.46,-4.8 0.41,-2.01 0.62,-4.16 0.62,-6.46l0 -47.11c0,-2.29 -0.21,-4.43 -0.62,-6.39 -0.41,-1.97 -1.23,-3.55 -2.46,-4.74 -1.23,-1.19 -3.15,-1.78 -5.78,-1.78 -2.46,0 -4.3,0.59 -5.53,1.78 -1.23,1.19 -2.05,2.77 -2.46,4.74 -0.41,1.96 -0.62,4.1 -0.62,6.39l0 47.11c0,2.3 0.19,4.45 0.55,6.46 0.37,2.01 1.17,3.61 2.4,4.8 1.23,1.19 3.12,1.78 5.66,1.78zm43.05 13.29l0 -99.64 25.84 0c6.72,0 12.48,0.76 17.28,2.28 4.8,1.51 8.49,4.2 11.07,8.05 2.58,3.86 3.87,9.19 3.87,15.99 0,4.11 -0.34,7.73 -1.04,10.89 -0.7,3.16 -1.93,5.91 -3.69,8.24 -1.76,2.34 -4.25,4.21 -7.44,5.6l13.77 48.59 -20.78 0 -11.44 -45.15 -7.14 0 0 45.15 -20.3 0zm20.3 -57.2l5.9 0c3.29,0 5.87,-0.53 7.75,-1.6 1.89,-1.07 3.22,-2.69 4,-4.86 0.78,-2.17 1.17,-4.86 1.17,-8.06 0,-4.59 -0.84,-8.09 -2.52,-10.51 -1.68,-2.42 -4.82,-3.63 -9.41,-3.63l-6.89 0 0 28.66zm59.41 57.2l-0.12 -84.51 -15.38 -0.12 0 -15.01 50.93 0 0 15.13 -15.25 -0.12 0.12 84.63 -20.3 0zm34.08 0l19.31 -99.64 22.51 0 19.19 99.64 -18.82 0 -3.57 -21.9 -15.74 0 -3.82 21.9 -19.06 0zm24.72 -34.32l11.93 0 -6.02 -40.23 -5.91 40.23zm46.38 34.32l0 -99.64 20.17 0 0.12 85.86 23.37 0 0 13.78 -43.66 0z"/>
   <path class="fil4" d="M812.46 329.79l0 -195.25 82.2 0 0.24 26.99 -42.91 0 0.24 52.8 35.92 0 0.24 27.72 -36.4 -0.24 0.24 87.98 -39.77 0zm102.45 0l0 -195.25 39.53 0 0.24 168.25 45.8 0 0 27 -85.57 0zm155.96 2.65c-14.3,0 -25.63,-2.57 -33.99,-7.71 -8.35,-5.14 -14.34,-12.49 -17.95,-22.06 -3.62,-9.56 -5.43,-21.01 -5.43,-34.35l0 -72.8c0,-13.33 1.81,-24.74 5.43,-34.23 3.61,-9.48 9.6,-16.71 17.95,-21.69 8.36,-4.98 19.69,-7.47 33.99,-7.47 14.47,0 25.92,2.53 34.35,7.59 8.44,5.06 14.47,12.29 18.08,21.69 3.62,9.41 5.43,20.78 5.43,34.11l0 72.8c0,13.34 -1.81,24.79 -5.43,34.35 -3.61,9.57 -9.64,16.92 -18.08,22.06 -8.43,5.14 -19.88,7.71 -34.35,7.71zm0 -28.68c5.15,0 8.92,-1.17 11.33,-3.5 2.41,-2.33 4.02,-5.46 4.82,-9.4 0.81,-3.94 1.21,-8.15 1.21,-12.65l0 -92.33c0,-4.5 -0.4,-8.68 -1.21,-12.53 -0.8,-3.86 -2.41,-6.95 -4.82,-9.28 -2.41,-2.33 -6.18,-3.5 -11.33,-3.5 -4.82,0 -8.43,1.17 -10.84,3.5 -2.41,2.33 -4.02,5.42 -4.83,9.28 -0.8,3.85 -1.2,8.03 -1.2,12.53l0 92.33c0,4.5 0.36,8.71 1.08,12.65 0.73,3.94 2.29,7.07 4.7,9.4 2.42,2.33 6.11,3.5 11.09,3.5zm84.37 26.03l0 -195.25 50.63 0c13.17,0 24.46,1.48 33.87,4.46 9.4,2.97 16.63,8.23 21.69,15.79 5.06,7.55 7.59,17.99 7.59,31.33 0,8.04 -0.68,15.15 -2.05,21.34 -1.36,6.18 -3.77,11.57 -7.23,16.15 -3.45,4.58 -8.31,8.23 -14.58,10.97l27 95.21 -40.74 0 -22.42 -88.46 -13.98 0 0 88.46 -39.78 0zm39.78 -112.09l11.57 0c6.43,0 11.49,-1.04 15.19,-3.13 3.69,-2.09 6.3,-5.27 7.83,-9.52 1.53,-4.26 2.29,-9.53 2.29,-15.79 0,-9 -1.65,-15.87 -4.94,-20.61 -3.3,-4.75 -9.44,-7.12 -18.44,-7.12l-13.5 0 0 56.17zm101.24 112.09l0 -195.25 39.54 0 0 195.25 -39.54 0zm59.79 0l37.84 -195.25 44.12 0 37.6 195.25 -36.88 0 -6.99 -42.91 -30.86 0 -7.47 42.91 -37.36 0zm48.45 -67.25l23.38 0 -11.81 -78.83 -11.57 78.83zm90.88 67.25l0 -195.25 27.72 0 43.39 101.72 0 -101.72 32.78 0 0 195.25 -26.51 0 -43.39 -107.99 0 107.99 -33.99 0zm188.02 2.65c-14.3,0 -25.63,-2.57 -33.99,-7.71 -8.35,-5.14 -14.34,-12.49 -17.95,-22.06 -3.62,-9.56 -5.43,-21.01 -5.43,-34.35l0 -72.8c0,-13.33 1.81,-24.74 5.43,-34.23 3.61,-9.48 9.6,-16.71 17.95,-21.69 8.36,-4.98 19.69,-7.47 33.99,-7.47 14.47,0 25.92,2.53 34.35,7.59 8.44,5.06 14.47,12.29 18.08,21.69 3.62,9.41 5.43,20.78 5.43,34.11l0 72.8c0,13.34 -1.81,24.79 -5.43,34.35 -3.61,9.57 -9.64,16.92 -18.08,22.06 -8.43,5.14 -19.88,7.71 -34.35,7.71zm0 -28.68c5.15,0 8.92,-1.17 11.33,-3.5 2.41,-2.33 4.02,-5.46 4.82,-9.4 0.81,-3.94 1.21,-8.15 1.21,-12.65l0 -92.33c0,-4.5 -0.4,-8.68 -1.21,-12.53 -0.8,-3.86 -2.41,-6.95 -4.82,-9.28 -2.41,-2.33 -6.18,-3.5 -11.33,-3.5 -4.82,0 -8.43,1.17 -10.84,3.5 -2.41,2.33 -4.02,5.42 -4.83,9.28 -0.8,3.85 -1.2,8.03 -1.2,12.53l0 92.33c0,4.5 0.36,8.71 1.08,12.65 0.73,3.94 2.29,7.07 4.7,9.4 2.42,2.33 6.11,3.5 11.09,3.5zm-11.33 -183.93l14.95 -48.21 36.88 0 -29.65 48.21 -22.18 0zm95.7 209.96l0 -195.25 61.96 0c11.73,0 21.29,2.21 28.68,6.62 7.39,4.42 12.9,10.81 16.51,19.17 3.62,8.36 5.43,18.48 5.43,30.37 0,13.98 -2.37,24.91 -7.11,32.79 -4.74,7.87 -11.21,13.46 -19.41,16.75 -8.19,3.29 -17.6,4.94 -28.2,4.94l-18.08 0 0 84.61 -39.78 0zm39.78 -112.57l13.98 0c5.79,0 10.24,-0.93 13.38,-2.77 3.13,-1.85 5.26,-4.78 6.39,-8.8 1.12,-4.02 1.68,-9.16 1.68,-15.43 0,-5.95 -0.44,-10.93 -1.32,-14.95 -0.89,-4.01 -2.85,-7.15 -5.91,-9.4 -3.05,-2.25 -7.87,-3.37 -14.46,-3.37l-13.74 0 0 54.72zm147.77 115.22c-14.31,0 -25.63,-2.57 -33.99,-7.71 -8.36,-5.14 -14.34,-12.49 -17.96,-22.06 -3.62,-9.56 -5.42,-21.01 -5.42,-34.35l0 -72.8c0,-13.33 1.8,-24.74 5.42,-34.23 3.62,-9.48 9.6,-16.71 17.96,-21.69 8.36,-4.98 19.68,-7.47 33.99,-7.47 14.46,0 25.91,2.53 34.35,7.59 8.44,5.06 14.46,12.29 18.08,21.69 3.61,9.41 5.42,20.78 5.42,34.11l0 72.8c0,13.34 -1.81,24.79 -5.42,34.35 -3.62,9.57 -9.64,16.92 -18.08,22.06 -8.44,5.14 -19.89,7.71 -34.35,7.71zm0 -28.68c5.14,0 8.92,-1.17 11.33,-3.5 2.41,-2.33 4.02,-5.46 4.82,-9.4 0.8,-3.94 1.2,-8.15 1.2,-12.65l0 -92.33c0,-4.5 -0.4,-8.68 -1.2,-12.53 -0.8,-3.86 -2.41,-6.95 -4.82,-9.28 -2.41,-2.33 -6.19,-3.5 -11.33,-3.5 -4.82,0 -8.44,1.17 -10.85,3.5 -2.41,2.33 -4.02,5.42 -4.82,9.28 -0.8,3.85 -1.21,8.03 -1.21,12.53l0 92.33c0,4.5 0.37,8.71 1.09,12.65 0.72,3.94 2.29,7.07 4.7,9.4 2.41,2.33 6.11,3.5 11.09,3.5zm84.37 26.03l0 -195.25 39.53 0 0.24 168.25 45.8 0 0 27 -85.57 0zm104.86 0l0 -195.25 39.53 0 0 195.25 -39.53 0zm120.05 2.65c-12.06,0 -22.1,-2.21 -30.14,-6.62 -8.03,-4.42 -14.1,-11.09 -18.2,-20.01 -4.09,-8.92 -6.47,-20.29 -7.11,-34.11l34.23 -5.79c0.32,8.04 1.17,14.75 2.53,20.13 1.37,5.38 3.46,9.4 6.27,12.05 2.81,2.66 6.31,3.98 10.49,3.98 5.14,0 8.64,-1.61 10.48,-4.82 1.85,-3.21 2.78,-6.91 2.78,-11.09 0,-8.19 -1.97,-15.06 -5.91,-20.61 -3.94,-5.54 -9.12,-11.13 -15.55,-16.75l-20.25 -17.6c-7.23,-6.11 -13.14,-13.02 -17.72,-20.73 -4.58,-7.71 -6.87,-17.2 -6.87,-28.45 0,-16.07 4.71,-28.4 14.11,-37 9.4,-8.6 22.29,-12.89 38.69,-12.89 9.8,0 17.83,1.6 24.1,4.82 6.27,3.21 11.13,7.51 14.59,12.89 3.45,5.39 5.86,11.25 7.23,17.6 1.36,6.35 2.21,12.66 2.53,18.92l-33.99 5.07c-0.32,-5.95 -0.84,-11.17 -1.57,-15.67 -0.72,-4.5 -2.17,-8.04 -4.34,-10.61 -2.17,-2.57 -5.42,-3.86 -9.76,-3.86 -4.66,0 -8.12,1.73 -10.36,5.19 -2.25,3.45 -3.38,7.27 -3.38,11.45 0,6.91 1.57,12.57 4.7,16.99 3.14,4.42 7.43,9.04 12.9,13.86l19.76 17.36c8.2,7.07 15.23,15.14 21.1,24.22 5.86,9.08 8.8,20.29 8.8,33.63 0,9.16 -2.09,17.44 -6.27,24.83 -4.18,7.39 -10.01,13.18 -17.48,17.36 -7.47,4.18 -16.27,6.26 -26.39,6.26z"/>
  </g>
 </g>
</svg>
